<svg xmlns="http://www.w3.org/2000/svg" version="1.1" xmlns:xlink="http://www.w3.org/1999/xlink" width="800" height="200">
<g transform="scale(0.02)">
<path fill="#08f" d="M0 5120 l0 -5120 5120 0 5120 0 0 5120 0 5120 -5120 0 -5120 0 0 -5120z m8061 2728 c18 -30 20 -44 15 -158 -3 -69 -10 -150 -15 -180 -10 -51 -17 -96 -41 -237 -5 -32 -14 -85 -20 -118 -11 -59 -19 -108 -39 -230 -6 -33 -19 -114 -31 -180 -12 -66 -25 -147 -31 -180 -20 -122 -28 -171 -39 -230 -11 -59 -19 -108 -39 -230 -6 -33 -19 -114 -31 -180 -12 -66 -25 -147 -31 -180 -20 -122 -28 -171 -39 -230 -6 -33 -15 -87 -21 -120 -5 -33 -14 -86 -19 -117 -6 -32 -14 -84 -20 -115 -5 -32 -14 -85 -20 -118 -11 -58 -18 -103 -39 -230 -6 -33 -15 -87 -21 -120 -6 -33 -15 -87 -21 -120 -5 -33 -14 -87 -20 -120 -5 -33 -14 -85 -19 -115 -5 -30 -14 -82 -20 -115 -12 -67 -24 -139 -40 -235 -18 -116 -20 -120 -86 -155 -118 -63 -292 -154 -419 -220 -71 -37 -164 -86 -205 -108 -41 -22 -121 -64 -177 -93 -160 -84 -309 -162 -413 -217 -52 -27 -135 -71 -185 -97 -49 -26 -129 -68 -177 -94 -49 -25 -127 -67 -175 -92 -114 -61 -276 -146 -383 -201 l-85 -44 -15 22 c-8 12 -30 49 -48 83 -37 67 -76 137 -114 206 -24 42 -48 86 -117 213 -15 28 -42 78 -60 110 -17 31 -44 82 -61 112 -16 30 -44 81 -61 113 -18 31 -44 80 -59 107 -15 28 -41 76 -59 108 -17 31 -44 82 -61 112 -16 30 -44 81 -61 113 -18 31 -42 75 -54 97 -12 22 -36 65 -52 95 -17 30 -39 71 -50 90 -11 19 -38 69 -60 110 -141 258 -128 241 -159 205 -59 -68 -82 -94 -144 -165 -36 -41 -67 -77 -70 -80 -3 -3 -30 -34 -60 -70 -30 -36 -57 -67 -60 -70 -3 -3 -34 -39 -70 -80 -36 -41 -67 -77 -70 -80 -3 -3 -62 -70 -130 -150 -68 -80 -127 -147 -130 -150 -3 -3 -62 -70 -130 -150 -68 -80 -127 -147 -130 -150 -3 -3 -62 -70 -130 -150 -69 -80 -127 -147 -130 -150 -3 -3 -62 -70 -130 -150 -69 -80 -139 -161 -156 -180 -17 -19 -68 -78 -114 -130 -187 -216 -292 -262 -317 -138 -13 66 6 163 117 603 56 220 106 416 110 435 15 59 30 118 39 158 5 20 46 181 91 357 45 176 86 337 91 358 5 20 13 54 19 75 5 20 13 55 19 77 5 22 51 202 101 400 50 198 95 376 100 395 5 19 41 161 80 315 39 154 76 297 81 318 18 74 30 123 39 157 5 19 14 53 19 75 6 22 15 60 21 85 6 25 15 61 20 80 5 19 13 51 17 70 7 27 15 36 33 38 14 2 29 8 35 13 5 5 17 9 27 9 10 0 26 4 36 9 9 5 161 57 337 115 176 58 589 196 919 306 329 111 605 200 614 198 9 -2 53 -56 97 -120 100 -146 180 -260 431 -616 109 -156 229 -327 267 -380 143 -206 209 -300 270 -387 133 -189 213 -303 273 -391 67 -96 89 -120 98 -106 3 5 24 44 47 88 23 43 61 115 84 159 23 44 64 121 90 170 26 50 66 124 88 165 86 161 116 218 161 303 25 48 67 126 92 175 26 48 63 119 84 157 21 39 58 109 84 158 25 48 67 126 92 175 26 48 63 119 84 157 21 39 58 109 84 158 25 48 67 126 92 175 222 419 269 502 330 583 73 96 119 113 155 57z"/>
</g>
<text x="170" y="20" fill="#00f">优量科技 </text>
<text x="170" y="55" fill="#000">公司核心研发人员由腾讯、完美和网龙等高水平人员组成；</text>
<text x="170" y="80" fill="#000">舒适的工作环境，人性化的管理，打造优质手游。</text>
<text x="170" y="115" fill="#000">招聘 ： PHP技术总监 年薪50万起 </text>
<text x="170" y="140" fill="#000">引荐成功奖励五万</text>
<rect x="0" y="150" width="150" height="30" fill="#f40"/>
<text x="45" y="170" fill="#fff">我感兴趣</text>

</svg>
